<?xml version="1.0" encoding="UTF-8"?>
<svg width="32px" height="32px" viewBox="0 0 32 32" version="1.1" xmlns="http://www.w3.org/2000/svg" xmlns:xlink="http://www.w3.org/1999/xlink">
    <!-- Generator: Sketch 46.2 (44496) - http://www.bohemiancoding.com/sketch -->
    <title>overlay-box-icon</title>
    <desc>Created with Sketch.</desc>
    <defs></defs>
    <g id="Page-1" stroke="none" stroke-width="1" fill="none" fill-rule="evenodd">
        <g id="overlay-box-icon">
            <path d="M3,2 C2.44771525,2 2,2.44771525 2,3 L2,21 C2,21.5522847 2.44771525,22 3,22 L29,22 C29.5522847,22 30,21.5522847 30,21 L30,3 C30,2.44771525 29.5522847,2 29,2 L3,2 Z M3,0 L29,0 C30.6568542,-1.77635684e-15 32,1.34314575 32,3 L32,21 C32,22.6568542 30.6568542,24 29,24 L3,24 C1.34314575,24 0,22.6568542 0,21 L0,3 C0,1.34314575 1.34314575,8.8817842e-16 3,0 Z M5.22949219,22 L7,24 L29,24 L29,22 L5.22949219,22 Z" id="box" fill="#000000" fill-rule="nonzero"></path>
            <path d="M25.9276571,19.0526269 L25.9276571,23 C25.9276571,24.7929687 22.6723112,27.6616821 18.2836266,28.7527466 C15.2180905,29.514865 12.8639821,27.0378165 11.6185065,25.0332057 C9.26559099,21.7913934 7.38162538,19.7125511 5.96660964,18.7966791 C4.43454309,17.8050456 4.78609919,16.93924 7.02127797,16.1992623 C7.27589321,16.1307514 7.46540027,16.088968 7.58979915,16.0739122 C8.85505979,15.920779 9.86714516,16.1321391 10.6573292,16.608977 L10.6573292,6.90879099 L10.6573292,6.90879099 C10.6573292,5.85459483 11.511924,5 12.5661202,5 C13.6203163,5 14.4749112,5.85459483 14.4749112,6.90879099 L14.4749112,14.9543955 L14.4749112,12.908791 C14.4749112,11.8545948 15.329506,11 16.3837022,11 C17.4378983,11 18.2924931,11.8545948 18.2924931,12.908791 L18.2924931,15.4543955 L18.2924931,13.908791 C18.2924931,12.8545948 19.147088,12 20.2012841,12 C21.2554803,12 22.1100751,12.8545948 22.1100751,13.908791 L22.1100751,15.9543955 L22.1100751,14.908791 C22.1100751,13.8545948 22.96467,13 24.0188661,13 C25.0730623,13 25.9276571,13.8545948 25.9276571,14.908791 L25.9276571,19.0526269 Z" id="hand" stroke="#000000" stroke-width="2"></path>
        </g>
    </g>
</svg>